<svg xmlns="http://www.w3.org/2000/svg" viewBox="0 0 431 105" width="431" height="105">
	<style>
		tspan { white-space:pre }
		.shp0 { fill: #2a2945 } 
	</style>
	<path id="Unfollow Accounts on Instagram " fill="#2a2945" d="M1.9 74.7L0.83 74.7L0.83 89.87Q0.83 93.98 3.01 96.19Q5.21 98.49 9.23 98.49Q13.21 98.49 15.45 96.19Q17.62 93.92 17.62 89.87L17.62 74.7L16.55 74.7L16.55 89.35Q16.55 93.17 14.83 95.28Q12.95 97.55 9.23 97.55Q1.9 97.55 1.9 89.35L1.9 74.7ZM22.32 81.18L22.32 98L23.36 98L23.36 88.99Q23.36 88.02 23.39 87.31Q23.45 86.56 23.52 86.07Q24.3 81.76 29.06 81.76Q31.65 81.76 32.79 83.22Q33.76 84.49 33.76 87.18L33.76 98L34.8 98L34.8 86.85Q34.8 80.82 29.03 80.82Q24.94 80.82 23.36 83.94L23.36 81.18L22.32 81.18ZM38.52 78.82L38.52 98L39.53 98L39.53 82.12L42.83 82.12L42.83 81.18L39.53 81.18L39.53 78.78Q39.53 77.03 39.82 76.39Q40.31 75.41 41.83 75.41L44.65 75.41L44.65 74.54L41.67 74.57Q39.62 74.57 39.01 75.74Q38.52 76.61 38.52 78.82ZM45.23 89.64Q45.23 93.46 46.98 95.83Q48.93 98.42 52.62 98.42Q56.28 98.42 58.29 95.83Q60.04 93.46 60.04 89.64Q60.04 85.82 58.29 83.48Q56.31 80.82 52.62 80.82Q48.93 80.82 46.98 83.48Q45.23 85.82 45.23 89.64ZM46.27 89.64Q46.27 86.27 47.73 84.16Q49.38 81.73 52.62 81.73Q55.83 81.73 57.55 84.16Q59 86.27 59 89.64Q59 93.04 57.55 95.12Q55.83 97.55 52.62 97.55Q49.41 97.55 47.73 95.12Q46.27 93.04 46.27 89.64ZM63.8 74.73L63.8 98L64.8 98L64.8 74.73L63.8 74.73ZM69.47 74.73L69.47 98L70.48 98L70.48 74.73L69.47 74.73ZM74.23 89.64Q74.23 93.46 75.98 95.83Q77.93 98.42 81.62 98.42Q85.28 98.42 87.29 95.83Q89.04 93.46 89.04 89.64Q89.04 85.82 87.29 83.48Q85.32 80.82 81.62 80.82Q77.93 80.82 75.98 83.48Q74.23 85.82 74.23 89.64ZM75.27 89.64Q75.27 86.27 76.73 84.16Q78.38 81.73 81.62 81.73Q84.83 81.73 86.55 84.16Q88.01 86.27 88.01 89.64Q88.01 93.04 86.55 95.12Q84.83 97.55 81.62 97.55Q78.41 97.55 76.73 95.12Q75.27 93.04 75.27 89.64ZM90.89 81.18L96.24 98L97.28 98L101.23 86.5L105.31 98L106.35 98L111.73 81.18L110.69 81.18L105.83 96.41L101.71 84.65L100.77 84.65L96.76 96.41L91.96 81.18L90.89 81.18ZM129.39 74.7L120.41 98L121.48 98L124.53 90.06L135.38 90.06L138.4 98L139.47 98L130.62 74.7L129.39 74.7ZM135 89.09L124.92 89.09L130.01 75.96L135 89.09ZM154.28 93.95L153.4 93.43Q152.92 95.38 151.43 96.48Q149.97 97.55 147.99 97.55Q144.78 97.55 143.1 95.12Q141.64 93.04 141.64 89.64Q141.64 86.27 143.1 84.16Q144.75 81.73 147.99 81.73Q150.1 81.73 151.56 82.9Q152.69 83.84 153.11 85.07L153.99 84.49Q152.56 80.82 147.99 80.82Q144.3 80.82 142.35 83.48Q140.6 85.82 140.6 89.64Q140.6 93.37 142.32 95.76Q144.26 98.42 147.89 98.42Q150.65 98.42 152.46 96.9Q153.73 95.76 154.28 93.95ZM171.1 93.95L170.22 93.43Q169.73 95.38 168.24 96.48Q166.79 97.55 164.81 97.55Q161.6 97.55 159.92 95.12Q158.46 93.04 158.46 89.64Q158.46 86.27 159.92 84.16Q161.57 81.73 164.81 81.73Q166.92 81.73 168.37 82.9Q169.51 83.84 169.93 85.07L170.8 84.49Q169.38 80.82 164.81 80.82Q161.11 80.82 159.17 83.48Q157.42 85.82 157.42 89.64Q157.42 93.37 159.14 95.76Q161.08 98.42 164.71 98.42Q167.47 98.42 169.28 96.9Q170.55 95.76 171.1 93.95ZM174.24 89.64Q174.24 93.46 175.99 95.83Q177.93 98.42 181.63 98.42Q185.29 98.42 187.3 95.83Q189.05 93.46 189.05 89.64Q189.05 85.82 187.3 83.48Q185.32 80.82 181.63 80.82Q177.93 80.82 175.99 83.48Q174.24 85.82 174.24 89.64ZM175.28 89.64Q175.28 86.27 176.73 84.16Q178.39 81.73 181.63 81.73Q184.84 81.73 186.55 84.16Q188.01 86.27 188.01 89.64Q188.01 93.04 186.55 95.12Q184.84 97.55 181.63 97.55Q178.42 97.55 176.73 95.12Q175.28 93.04 175.28 89.64ZM205.09 98L205.09 81.18L204.09 81.18L204.09 90.29Q204.09 91.29 204.02 92.04Q203.99 92.75 203.92 93.24Q203.15 97.51 198.38 97.51Q195.76 97.51 194.66 96.06Q193.65 94.82 193.65 92.1L193.65 81.18L192.65 81.18L192.65 92.43Q192.65 98.42 198.41 98.42Q202.5 98.42 204.09 95.38L204.09 98L205.09 98ZM209.59 81.18L209.59 98L210.63 98L210.63 88.99Q210.63 88.02 210.66 87.31Q210.73 86.56 210.79 86.07Q211.57 81.76 216.33 81.76Q218.93 81.76 220.06 83.22Q221.03 84.49 221.03 87.18L221.03 98L222.07 98L222.07 86.85Q222.07 80.82 216.3 80.82Q212.22 80.82 210.63 83.94L210.63 81.18L209.59 81.18ZM226.8 76.58L225.76 76.58L225.76 98L226.8 98L226.8 82.09L230.17 82.09L230.17 81.18L226.8 81.18L226.8 76.58ZM232.93 93.01L231.92 93.01Q232.15 95.67 233.93 97.09Q235.65 98.42 238.34 98.42Q240.7 98.42 242.42 97.29Q244.33 95.96 244.33 93.69Q244.33 91.58 242.62 90.45Q241.58 89.74 238.92 89.06Q238.66 89.02 238.6 88.96Q233.45 87.66 233.45 85.13Q233.45 83.45 234.97 82.51Q236.23 81.73 238.01 81.73Q242.29 81.73 242.81 85.65L243.82 85.65Q243.56 83.35 242 82.06Q240.48 80.82 238.14 80.82Q235.88 80.82 234.26 81.86Q232.38 83.06 232.38 85.26Q232.38 87.11 233.74 88.18Q234.94 89.12 239.05 90.19Q239.41 90.25 239.6 90.32Q239.83 90.38 239.93 90.42Q243.26 91.32 243.26 93.66Q243.26 95.6 241.68 96.61Q240.35 97.48 238.31 97.48Q233.74 97.48 232.93 93.01ZM255.74 89.64Q255.74 93.46 257.49 95.83Q259.43 98.42 263.13 98.42Q266.79 98.42 268.8 95.83Q270.55 93.46 270.55 89.64Q270.55 85.82 268.8 83.48Q266.82 80.82 263.13 80.82Q259.43 80.82 257.49 83.48Q255.74 85.82 255.74 89.64ZM256.78 89.64Q256.78 86.27 258.24 84.16Q259.89 81.73 263.13 81.73Q266.34 81.73 268.05 84.16Q269.51 86.27 269.51 89.64Q269.51 93.04 268.05 95.12Q266.34 97.55 263.13 97.55Q259.92 97.55 258.24 95.12Q256.78 93.04 256.78 89.64ZM274.21 81.18L274.21 98L275.25 98L275.25 88.99Q275.25 88.02 275.28 87.31Q275.35 86.56 275.41 86.07Q276.19 81.76 280.95 81.76Q283.54 81.76 284.68 83.22Q285.65 84.49 285.65 87.18L285.65 98L286.69 98L286.69 86.85Q286.69 80.82 280.92 80.82Q276.84 80.82 275.25 83.94L275.25 81.18L274.21 81.18ZM300.1 74.7L300.1 98L301.17 98L301.17 74.7L300.1 74.7ZM306.23 81.18L306.23 98L307.27 98L307.27 88.99Q307.27 88.02 307.3 87.31Q307.36 86.56 307.43 86.07Q308.21 81.76 312.97 81.76Q315.56 81.76 316.7 83.22Q317.67 84.49 317.67 87.18L317.67 98L318.71 98L318.71 86.85Q318.71 80.82 312.94 80.82Q308.85 80.82 307.27 83.94L307.27 81.18L306.23 81.18ZM323.5 93.01L322.5 93.01Q322.72 95.67 324.51 97.09Q326.22 98.42 328.91 98.42Q331.28 98.42 333 97.29Q334.91 95.96 334.91 93.69Q334.91 91.58 333.19 90.45Q332.15 89.74 329.5 89.06Q329.24 89.02 329.17 88.96Q324.02 87.66 324.02 85.13Q324.02 83.45 325.54 82.51Q326.81 81.73 328.59 81.73Q332.87 81.73 333.39 85.65L334.39 85.65Q334.13 83.35 332.58 82.06Q331.05 80.82 328.72 80.82Q326.45 80.82 324.83 81.86Q322.95 83.06 322.95 85.26Q322.95 87.11 324.31 88.18Q325.51 89.12 329.63 90.19Q329.98 90.25 330.18 90.32Q330.4 90.38 330.5 90.42Q333.84 91.32 333.84 93.66Q333.84 95.6 332.25 96.61Q330.92 97.48 328.88 97.48Q324.31 97.48 323.5 93.01ZM339.02 76.58L337.99 76.58L337.99 98L339.02 98L339.02 82.09L342.39 82.09L342.39 81.18L339.02 81.18L339.02 76.58ZM357.79 94.37L357.79 98L358.79 98L358.79 81.18L357.79 81.18L357.79 85.04Q356.13 80.82 351.44 80.82Q347.71 80.82 345.76 83.45Q344.01 85.78 344.01 89.64Q344.01 93.46 345.76 95.83Q347.77 98.42 351.44 98.42Q356.17 98.42 357.79 94.37ZM345.05 89.64Q345.05 86.24 346.54 84.16Q348.19 81.73 351.44 81.73Q354.68 81.73 356.33 84.16Q357.79 86.27 357.79 89.64Q357.79 93.04 356.33 95.12Q354.68 97.55 351.44 97.55Q348.19 97.55 346.51 95.12Q345.05 93.04 345.05 89.64ZM376.32 94.4L376.32 96.12Q376.32 99.65 375.58 100.98Q373.99 103.83 369.78 103.83Q367.51 103.83 366.05 102.96Q364.37 101.95 364.2 99.78L363.23 99.78Q363.3 102.31 365.21 103.61Q366.93 104.74 369.52 104.74Q374.25 104.74 376.26 101.82Q377.33 100.27 377.33 97.09L377.33 81.18L376.32 81.18L376.32 84.94Q375.58 82.9 373.86 81.86Q372.14 80.82 369.97 80.82Q366.24 80.82 364.3 83.45Q362.55 85.78 362.55 89.64Q362.55 93.43 364.27 95.83Q366.21 98.45 369.91 98.45Q374.57 98.45 376.32 94.4ZM376.32 89.64Q376.32 93.04 374.86 95.12Q373.21 97.55 369.97 97.55Q366.73 97.55 365.05 95.12Q363.59 93.04 363.59 89.64Q363.59 86.24 365.08 84.16Q366.73 81.73 369.97 81.73Q373.21 81.73 374.86 84.16Q376.32 86.27 376.32 89.64ZM381.83 81.18L381.83 98L382.87 98L382.87 86.82Q382.87 85.1 383.81 84Q384.98 82.67 386.08 82.35Q386.6 82.15 387.79 82.15L388.44 81.25Q384.17 81.21 382.87 83.97L382.87 81.18L381.83 81.18ZM403.38 94.37L403.38 98L404.39 98L404.39 81.18L403.38 81.18L403.38 85.04Q401.73 80.82 397.03 80.82Q393.3 80.82 391.36 83.45Q389.61 85.78 389.61 89.64Q389.61 93.46 391.36 95.83Q393.37 98.42 397.03 98.42Q401.76 98.42 403.38 94.37ZM390.65 89.64Q390.65 86.24 392.14 84.16Q393.79 81.73 397.03 81.73Q400.27 81.73 401.92 84.16Q403.38 86.27 403.38 89.64Q403.38 93.04 401.92 95.12Q400.27 97.55 397.03 97.55Q393.79 97.55 392.1 95.12Q390.65 93.04 390.65 89.64ZM408.89 81.18L408.89 98L409.93 98L409.93 88.93Q409.93 87.99 409.96 87.27Q410.03 86.53 410.09 86.04Q410.8 81.76 415.11 81.76Q418.03 81.76 418.94 83.94Q419.42 85.07 419.42 87.89L419.42 98L420.43 98L420.43 88.93Q420.43 85.69 421.37 83.97Q422.6 81.76 425.61 81.76Q428.53 81.76 429.44 83.94Q429.92 85.07 429.92 87.89L429.92 98L430.96 98L430.96 86.85Q430.96 80.82 425.65 80.82Q421.92 80.82 420.17 84.26Q419.26 80.82 415.18 80.82Q411.58 80.82 409.93 83.94L409.93 81.18L408.89 81.18Z" />
	<path id="Shape 1" class="shp0" d="M43 68L388 68L388 70L43 70L43 68Z" />
	<path id="U.A.I. " fill="#2a2945" d="M155.69 60.76Q148.13 60.76 143.29 58.28Q138.45 55.8 136.09 50.72Q133.77 45.6 133.77 37.6L133.77 0.8L140.25 0.8L140.25 38.32Q140.25 47.08 143.97 51.12Q147.69 55.16 155.69 55.16Q163.69 55.16 167.41 51.12Q171.13 47.08 171.13 38.32L171.13 0.8L177.49 0.8L177.49 37.6Q177.49 45.6 175.17 50.72Q172.85 55.8 168.05 58.28Q163.25 60.76 155.69 60.76ZM153.58 60.76Q146.02 60.76 141.18 58.28Q136.34 55.8 133.98 50.72Q131.66 45.6 131.66 37.6L131.66 0.8L138.14 0.8L138.14 38.32Q138.14 47.08 141.86 51.12Q145.58 55.16 153.58 55.16Q161.58 55.16 165.3 51.12Q169.02 47.08 169.02 38.32L169.02 0.8L175.38 0.8L175.38 37.6Q175.38 45.6 173.06 50.72Q170.74 55.8 165.94 58.28Q161.14 60.76 153.58 60.76ZM189.49 60.52Q187.45 60.52 186.17 59.32Q184.89 58.12 184.89 56.08Q184.89 54.04 186.13 52.84Q187.41 51.6 189.49 51.6Q191.57 51.6 192.85 52.84Q194.13 54.08 194.13 56.08Q194.13 58.08 192.85 59.32Q191.57 60.52 189.49 60.52ZM187.38 60.52Q185.34 60.52 184.06 59.32Q182.78 58.12 182.78 56.08Q182.78 54.04 184.02 52.84Q185.3 51.6 187.38 51.6Q189.46 51.6 190.74 52.84Q192.02 54.08 192.02 56.08Q192.02 58.08 190.74 59.32Q189.46 60.52 187.38 60.52ZM250.65 60L244.05 60L237.29 40.84L212.29 40.84L205.53 60L199.01 60L220.25 0.8L229.41 0.8L250.65 60ZM224.77 5.52L214.21 35.36L235.33 35.36L224.77 5.52ZM248.54 60L241.94 60L235.18 40.84L210.18 40.84L203.42 60L196.9 60L218.14 0.8L227.3 0.8L248.54 60ZM222.66 5.52L212.1 35.36L233.22 35.36L222.66 5.52ZM260.17 60.52Q258.13 60.52 256.85 59.32Q255.57 58.12 255.57 56.08Q255.57 54.04 256.81 52.84Q258.09 51.6 260.17 51.6Q262.25 51.6 263.53 52.84Q264.81 54.08 264.81 56.08Q264.81 58.08 263.53 59.32Q262.25 60.52 260.17 60.52ZM258.06 60.52Q256.02 60.52 254.74 59.32Q253.46 58.12 253.46 56.08Q253.46 54.04 254.7 52.84Q255.98 51.6 258.06 51.6Q260.14 51.6 261.42 52.84Q262.7 54.08 262.7 56.08Q262.7 58.08 261.42 59.32Q260.14 60.52 258.06 60.52ZM280.81 60L274.33 60L274.33 0.8L280.81 0.8L280.81 60ZM278.7 60L272.22 60L272.22 0.8L278.7 0.8L278.7 60ZM294.93 60.52Q292.89 60.52 291.61 59.32Q290.33 58.12 290.33 56.08Q290.33 54.04 291.57 52.84Q292.85 51.6 294.93 51.6Q297.01 51.6 298.29 52.84Q299.57 54.08 299.57 56.08Q299.57 58.08 298.29 59.32Q297.01 60.52 294.93 60.52ZM292.82 60.52Q290.78 60.52 289.5 59.32Q288.22 58.12 288.22 56.08Q288.22 54.04 289.46 52.84Q290.74 51.6 292.82 51.6Q294.9 51.6 296.18 52.84Q297.46 54.08 297.46 56.08Q297.46 58.08 296.18 59.32Q294.9 60.52 292.82 60.52Z" />
</svg>